<svg width="18" height="18" viewBox="0 0 18 18" fill="none" xmlns="http://www.w3.org/2000/svg">
<path fillRule="evenodd" clipRule="evenodd" d="M2.71204 3.96466C3.57068 3.54064 5.72775 2.50177 5.95811 0C5.95811 0 5.07853 0.14841 4.63874 0.233215C4.19895 0.318021 2 0.339223 2 1.4629V4.57951C2 4.60071 2 4.62191 2 4.66431C2.02094 4.60071 2.23037 4.21908 2.71204 3.96466ZM6 6C5.8534 4.5371 4.99476 3.60424 4.42932 3.13781C3.84293 3.60424 3.25654 3.92226 2.85864 4.11308L2.79581 4.15548C2.35602 4.36749 2.18848 4.72792 2.16754 4.77032L2.06283 4.93993C2.25131 5.32155 2.71204 5.59717 3.46597 5.74558C3.73822 5.80919 4.19895 5.87279 4.82722 5.87279C5.14136 5.87279 5.95812 6 6 6Z" fill="#1EB6C7"></path>
<path fillRule="evenodd" clipRule="evenodd" d="M11.3834 7.96466C12.2526 7.54064 14.4364 6.50177 14.6696 4C14.6696 4 13.7791 4.14841 13.3339 4.23322C12.8887 4.31802 10.6625 4.33922 10.6625 5.4629V8.57951C10.6625 8.60071 10.6625 8.62191 10.6625 8.66431C10.6837 8.60071 10.8958 8.21908 11.3834 7.96466ZM14.712 10C14.5636 8.5371 13.6943 7.60424 13.1219 7.13781C12.5283 7.60424 11.9346 7.92226 11.5318 8.11308L11.4682 8.15548C11.023 8.36749 10.8533 8.72792 10.8321 8.77032L10.7261 8.93993C10.917 9.32155 11.3834 9.59717 12.1466 9.74558C12.4223 9.80919 12.8887 9.87279 13.5247 9.87279C13.8427 9.87279 14.6696 10 14.712 10Z" fill="#1EB6C7"></path>
<path fillRule="evenodd" clipRule="evenodd" d="M2.71204 15.9162C3.57068 15.4974 5.72775 14.4712 5.95811 12C5.95811 12 5.07853 12.1466 4.63874 12.2304C4.19895 12.3141 2 12.3351 2 13.445V16.5236C2 16.5445 2 16.5654 2 16.6073C2.02094 16.5445 2.23037 16.1675 2.71204 15.9162ZM6 17.9267C5.8534 16.4817 4.99476 15.5602 4.42932 15.0995C3.84293 15.5602 3.25654 15.8743 2.85864 16.0628L2.79581 16.1047C2.35602 16.3141 2.18848 16.6702 2.16754 16.712L2.06283 16.8796C2.25131 17.2565 2.71204 17.5288 3.46597 17.6754C3.73822 17.7382 4.19895 17.801 4.82722 17.801C5.14136 17.801 5.95812 17.9267 6 17.9267Z" fill="#1EB6C7"></path>
</svg>